<svg id="Layer_1" data-name="Layer 1" xmlns="http://www.w3.org/2000/svg" viewBox="0 0 500 200"><defs><style>.cls-1{fill:#fff;}.cls-2{fill:#1562fc;}.cls-3{fill:#10e5da;}</style></defs><path class="cls-1" d="M61,92.88v34.73c0,2.42.59,4.17,1.75,5.25s3.13,1.62,5.9,1.62h8.42v15.29H65.69q-22.93,0-22.94-22.29V92.88H34.2V78h8.55V60.23H61V92.88Z"/><path class="cls-1" d="M155.09,119.32H102.61q.65,7.77,5.45,12.18a16.78,16.78,0,0,0,11.79,4.4q10.09,0,14.38-8.68h19.56a32.66,32.66,0,0,1-11.92,17q-8.81,6.68-21.63,6.67a37.42,37.42,0,0,1-18.6-4.6,32.36,32.36,0,0,1-12.83-13,40,40,0,0,1-4.6-19.44,40.59,40.59,0,0,1,4.54-19.56,31.72,31.72,0,0,1,12.7-13,38.06,38.06,0,0,1,18.79-4.53,37.81,37.81,0,0,1,18.33,4.4,31,31,0,0,1,12.57,12.51,37.82,37.82,0,0,1,4.47,18.59A43.54,43.54,0,0,1,155.09,119.32Zm-18.27-12.18a14.4,14.4,0,0,0-5-11.21,17.9,17.9,0,0,0-12.05-4.21,16.45,16.45,0,0,0-11.34,4.08q-4.6,4.08-5.64,11.34Z"/><path class="cls-1" d="M207.18,149.77l-14.77-22.29-13.09,22.29H159.88l23.46-36L159.62,78H180.1l14.64,22.16L208,78h19.44l-23.58,35.77,23.84,36Z"/><path class="cls-1" d="M257.32,92.88v34.73q0,3.63,1.75,5.25c1.17,1.08,3.13,1.62,5.9,1.62h8.42v15.29H262q-22.94,0-22.94-22.29V92.88H230.5V78h8.55V60.23h18.27V78h16.07v14.9Z"/><path class="cls-1" d="M303.32,78v71.79H285.18V78Z"/><path class="cls-1" d="M352.82,92.88H340.25v56.89h-18.4V92.88h-8.17V78h8.17V74.36q0-13.23,7.51-19.44T352,49.09V64.38c-4.41-.09-7.47.65-9.2,2.2s-2.59,4.36-2.59,8.42v3h12.57Z"/><path class="cls-1" d="M431.07,78v71.79H412.81V140.7a24,24,0,0,1-9.14,7.32,28.38,28.38,0,0,1-12.25,2.65,30.34,30.34,0,0,1-14.89-3.56,25,25,0,0,1-10.18-10.49,34.7,34.7,0,0,1-3.69-16.52V78H380.8V117.5q0,8.56,4.28,13.15t11.66,4.61q7.51,0,11.79-4.61t4.28-13.15V78Z"/><path class="cls-1" d="M465.8,53.88v95.89H447.66V53.88Z"/><path class="cls-2" d="M63.92,97.22l4.29-4.34H78.78V78H63.9Q63.91,87.62,63.92,97.22Z"/><path class="cls-3" d="M285.2,75.46l4.29-4.34h13.83V56.24H285.18Q285.18,65.85,285.2,75.46Z"/></svg>